<mxfile host="65bd71144e">
    <diagram id="eYP3qBmG0musdtPE9gto" name="Page-1">
        <mxGraphModel dx="967" dy="1898" grid="1" gridSize="10" guides="1" tooltips="1" connect="1" arrows="1" fold="1" page="1" pageScale="1" pageWidth="827" pageHeight="1169" math="0" shadow="0">
            <root>
                <mxCell id="0"/>
                <mxCell id="1" parent="0"/>
                <mxCell id="756" style="edgeStyle=none;html=1;entryX=0.5;entryY=0;entryDx=0;entryDy=0;" edge="1" parent="1" source="757" target="759">
                    <mxGeometry relative="1" as="geometry"/>
                </mxCell>
                <mxCell id="757" value="start" style="strokeWidth=2;html=1;shape=mxgraph.flowchart.terminator;whiteSpace=wrap;" vertex="1" parent="1">
                    <mxGeometry x="950" y="-200" width="100" height="60" as="geometry"/>
                </mxCell>
                <mxCell id="758" style="edgeStyle=none;html=1;" edge="1" parent="1" source="759" target="761">
                    <mxGeometry relative="1" as="geometry"/>
                </mxCell>
                <mxCell id="759" value="Input user date of birth" style="shape=parallelogram;html=1;strokeWidth=2;perimeter=parallelogramPerimeter;whiteSpace=wrap;rounded=1;arcSize=12;size=0.23;" vertex="1" parent="1">
                    <mxGeometry x="865" y="-100" width="270" height="60" as="geometry"/>
                </mxCell>
                <mxCell id="760" style="edgeStyle=none;html=1;entryX=0.5;entryY=0;entryDx=0;entryDy=0;" edge="1" parent="1" source="761" target="763">
                    <mxGeometry relative="1" as="geometry"/>
                </mxCell>
                <mxCell id="761" value="Input horoscope topic category" style="shape=parallelogram;html=1;strokeWidth=2;perimeter=parallelogramPerimeter;whiteSpace=wrap;rounded=1;arcSize=12;size=0.23;" vertex="1" parent="1">
                    <mxGeometry x="860" width="280" height="60" as="geometry"/>
                </mxCell>
                <mxCell id="762" style="edgeStyle=none;html=1;" edge="1" parent="1" source="763" target="765">
                    <mxGeometry relative="1" as="geometry"/>
                </mxCell>
                <mxCell id="763" value="&lt;span&gt;Create MDL list of zodiacs with dates beside each&lt;/span&gt;" style="rounded=1;whiteSpace=wrap;html=1;" vertex="1" parent="1">
                    <mxGeometry x="940" y="130" width="120" height="120" as="geometry"/>
                </mxCell>
                <mxCell id="764" style="edgeStyle=none;html=1;entryX=0.484;entryY=-0.006;entryDx=0;entryDy=0;entryPerimeter=0;" edge="1" parent="1" source="765" target="768">
                    <mxGeometry relative="1" as="geometry">
                        <Array as="points">
                            <mxPoint x="1430" y="390"/>
                        </Array>
                    </mxGeometry>
                </mxCell>
                <mxCell id="854" style="edgeStyle=none;html=1;entryX=0.5;entryY=0;entryDx=0;entryDy=0;entryPerimeter=0;" edge="1" parent="1" source="765" target="853">
                    <mxGeometry relative="1" as="geometry">
                        <Array as="points">
                            <mxPoint x="600" y="390"/>
                            <mxPoint x="580" y="390"/>
                            <mxPoint x="590" y="400"/>
                        </Array>
                    </mxGeometry>
                </mxCell>
                <mxCell id="765" value="&lt;span&gt;Create MDL list of horoscope topics&lt;/span&gt;" style="rounded=1;whiteSpace=wrap;html=1;" vertex="1" parent="1">
                    <mxGeometry x="940" y="330" width="120" height="120" as="geometry"/>
                </mxCell>
                <mxCell id="766" style="edgeStyle=none;html=1;" edge="1" parent="1" source="768" target="769">
                    <mxGeometry relative="1" as="geometry"/>
                </mxCell>
                <mxCell id="767" style="edgeStyle=none;html=1;entryX=0.5;entryY=0;entryDx=0;entryDy=0;entryPerimeter=0;" edge="1" parent="1" source="768" target="772">
                    <mxGeometry relative="1" as="geometry">
                        <Array as="points">
                            <mxPoint x="2155" y="550"/>
                        </Array>
                    </mxGeometry>
                </mxCell>
                <mxCell id="768" value="&lt;span&gt;if zodiac == aries&amp;nbsp;&lt;/span&gt;" style="strokeWidth=2;html=1;shape=mxgraph.flowchart.decision;whiteSpace=wrap;" vertex="1" parent="1">
                    <mxGeometry x="1175" y="500" width="530" height="100" as="geometry"/>
                </mxCell>
                <mxCell id="769" value="&lt;div&gt;document.getElementById(&quot;zodiac-image&quot;).innerHTML =&lt;/div&gt;&lt;div&gt;&amp;nbsp; &amp;nbsp; &amp;nbsp; '&amp;lt;img src= ./images/aries.png alt=&quot;API image&quot; class=&quot;center&quot; width= 50% height 50%' +&lt;/div&gt;&lt;div&gt;&amp;nbsp; &amp;nbsp; &amp;nbsp; &quot;&amp;gt;&quot; +&lt;/div&gt;&lt;div&gt;&amp;nbsp; &amp;nbsp; &amp;nbsp; &quot;&amp;lt;p&amp;gt;&amp;lt;/p&amp;gt;&quot; +&lt;/div&gt;&lt;div&gt;&amp;nbsp; &amp;nbsp; &amp;nbsp; &quot;&amp;lt;h4&amp;gt;Aries are fiery, passionate and high energy fire signs.&amp;lt;/h4&amp;gt;&quot;&lt;/div&gt;" style="shape=parallelogram;html=1;strokeWidth=2;perimeter=parallelogramPerimeter;whiteSpace=wrap;rounded=1;arcSize=12;size=0.23;" vertex="1" parent="1">
                    <mxGeometry x="1080" y="780" width="720" height="130" as="geometry"/>
                </mxCell>
                <mxCell id="770" style="edgeStyle=none;html=1;" edge="1" parent="1" source="772" target="773">
                    <mxGeometry relative="1" as="geometry"/>
                </mxCell>
                <mxCell id="771" style="edgeStyle=none;html=1;entryX=0.481;entryY=0.01;entryDx=0;entryDy=0;entryPerimeter=0;" edge="1" parent="1" source="772" target="775">
                    <mxGeometry relative="1" as="geometry">
                        <Array as="points">
                            <mxPoint x="2900" y="860"/>
                        </Array>
                    </mxGeometry>
                </mxCell>
                <mxCell id="772" value="&lt;span&gt;else if zodiac == taurus&amp;nbsp;&lt;/span&gt;" style="strokeWidth=2;html=1;shape=mxgraph.flowchart.decision;whiteSpace=wrap;" vertex="1" parent="1">
                    <mxGeometry x="1890" y="810" width="530" height="100" as="geometry"/>
                </mxCell>
                <mxCell id="773" value="&lt;div&gt;document.getElementById(&quot;zodiac-image&quot;).innerHTML =&lt;/div&gt;&lt;div&gt;&amp;nbsp; &amp;nbsp; &amp;nbsp; '&amp;lt;img src= ./images/taurus.png alt=&quot;API image&quot; class=&quot;center&quot; width= 50% height 50%' +&lt;/div&gt;&lt;div&gt;&amp;nbsp; &amp;nbsp; &amp;nbsp; &quot;&amp;gt;&quot; +&lt;/div&gt;&lt;div&gt;&amp;nbsp; &amp;nbsp; &amp;nbsp; &quot;&amp;lt;p&amp;gt;&amp;lt;/p&amp;gt;&quot; +&lt;/div&gt;&lt;div&gt;&amp;nbsp; &amp;nbsp; &amp;nbsp; &quot;&amp;lt;h4&amp;gt;Taurus are hard-headed, down-to-earth and tenacious earth signs.&amp;lt;/h4&amp;gt;&quot;&lt;/div&gt;" style="shape=parallelogram;html=1;strokeWidth=2;perimeter=parallelogramPerimeter;whiteSpace=wrap;rounded=1;arcSize=12;size=0.23;" vertex="1" parent="1">
                    <mxGeometry x="1795" y="1019" width="720" height="130" as="geometry"/>
                </mxCell>
                <mxCell id="774" style="edgeStyle=none;html=1;entryX=0.5;entryY=0;entryDx=0;entryDy=0;entryPerimeter=0;" edge="1" parent="1" source="775" target="778">
                    <mxGeometry relative="1" as="geometry">
                        <Array as="points">
                            <mxPoint x="3680" y="1069"/>
                        </Array>
                    </mxGeometry>
                </mxCell>
                <mxCell id="775" value="&lt;span&gt;else if zodiac == gemini&amp;nbsp;&lt;/span&gt;" style="strokeWidth=2;html=1;shape=mxgraph.flowchart.decision;whiteSpace=wrap;" vertex="1" parent="1">
                    <mxGeometry x="2645" y="1019" width="530" height="100" as="geometry"/>
                </mxCell>
                <mxCell id="776" value="&lt;div&gt;'&amp;lt;img src= ./images/gemini.png alt=&quot;API image&quot; class=&quot;center&quot; width= 50% height 50%' +&lt;/div&gt;&lt;div&gt;&amp;nbsp; &amp;nbsp; &amp;nbsp; &quot;&amp;gt;&quot; +&lt;/div&gt;&lt;div&gt;&amp;nbsp; &amp;nbsp; &amp;nbsp; &quot;&amp;lt;p&amp;gt;&amp;lt;/p&amp;gt;&quot; +&lt;/div&gt;&lt;div&gt;&amp;nbsp; &amp;nbsp; &amp;nbsp; &quot;&amp;lt;h4&amp;gt;Gemini are flexible, extroverted, and clever air signs.&amp;lt;/h4&amp;gt;&quot;&lt;/div&gt;" style="shape=parallelogram;html=1;strokeWidth=2;perimeter=parallelogramPerimeter;whiteSpace=wrap;rounded=1;arcSize=12;size=0.23;" vertex="1" parent="1">
                    <mxGeometry x="2550" y="1228" width="720" height="130" as="geometry"/>
                </mxCell>
                <mxCell id="777" style="edgeStyle=none;html=1;" edge="1" parent="1" source="775" target="776">
                    <mxGeometry relative="1" as="geometry"/>
                </mxCell>
                <mxCell id="778" value="&lt;span&gt;else if zodiac == cancer&amp;nbsp;&lt;/span&gt;" style="strokeWidth=2;html=1;shape=mxgraph.flowchart.decision;whiteSpace=wrap;" vertex="1" parent="1">
                    <mxGeometry x="3415" y="1228" width="530" height="100" as="geometry"/>
                </mxCell>
                <mxCell id="779" value="&lt;div&gt;'&amp;lt;img src= ./images/cancer.png alt=&quot;API image&quot; class=&quot;center&quot; width= 50% height 50%' +&lt;/div&gt;&lt;div&gt;&amp;nbsp; &amp;nbsp; &amp;nbsp; &quot;&amp;gt;&quot; +&lt;/div&gt;&lt;div&gt;&amp;nbsp; &amp;nbsp; &amp;nbsp; &quot;&amp;lt;p&amp;gt;&amp;lt;/p&amp;gt;&quot; +&lt;/div&gt;&lt;div&gt;&amp;nbsp; &amp;nbsp; &amp;nbsp; &quot;&amp;lt;h4&amp;gt;Cancers are nurturing, loya;, and protective water signs.&amp;lt;/h4&amp;gt;&quot;&lt;/div&gt;" style="shape=parallelogram;html=1;strokeWidth=2;perimeter=parallelogramPerimeter;whiteSpace=wrap;rounded=1;arcSize=12;size=0.23;" vertex="1" parent="1">
                    <mxGeometry x="3320" y="1437" width="720" height="130" as="geometry"/>
                </mxCell>
                <mxCell id="780" style="edgeStyle=none;html=1;" edge="1" parent="1" source="778" target="779">
                    <mxGeometry relative="1" as="geometry"/>
                </mxCell>
                <mxCell id="781" value="False" style="text;strokeColor=none;fillColor=none;html=1;fontSize=24;fontStyle=1;verticalAlign=middle;align=center;" vertex="1" parent="1">
                    <mxGeometry x="1860" y="500" width="100" height="40" as="geometry"/>
                </mxCell>
                <mxCell id="782" value="True" style="text;strokeColor=none;fillColor=none;html=1;fontSize=24;fontStyle=1;verticalAlign=middle;align=center;" vertex="1" parent="1">
                    <mxGeometry x="1460" y="660" width="100" height="40" as="geometry"/>
                </mxCell>
                <mxCell id="783" value="False" style="text;strokeColor=none;fillColor=none;html=1;fontSize=24;fontStyle=1;verticalAlign=middle;align=center;" vertex="1" parent="1">
                    <mxGeometry x="2600" y="810" width="100" height="40" as="geometry"/>
                </mxCell>
                <mxCell id="784" value="False" style="text;strokeColor=none;fillColor=none;html=1;fontSize=24;fontStyle=1;verticalAlign=middle;align=center;" vertex="1" parent="1">
                    <mxGeometry x="3340" y="1019" width="100" height="40" as="geometry"/>
                </mxCell>
                <mxCell id="785" value="True" style="text;strokeColor=none;fillColor=none;html=1;fontSize=24;fontStyle=1;verticalAlign=middle;align=center;" vertex="1" parent="1">
                    <mxGeometry x="3710" y="1350" width="110" height="40" as="geometry"/>
                </mxCell>
                <mxCell id="786" value="True" style="text;strokeColor=none;fillColor=none;html=1;fontSize=24;fontStyle=1;verticalAlign=middle;align=center;" vertex="1" parent="1">
                    <mxGeometry x="2910" y="1110" width="110" height="100" as="geometry"/>
                </mxCell>
                <mxCell id="787" value="True" style="text;strokeColor=none;fillColor=none;html=1;fontSize=24;fontStyle=1;verticalAlign=middle;align=center;" vertex="1" parent="1">
                    <mxGeometry x="2160" y="900" width="110" height="100" as="geometry"/>
                </mxCell>
                <mxCell id="788" style="edgeStyle=none;html=1;entryX=0.484;entryY=-0.006;entryDx=0;entryDy=0;entryPerimeter=0;" edge="1" parent="1" source="789" target="795">
                    <mxGeometry relative="1" as="geometry">
                        <Array as="points">
                            <mxPoint x="5190" y="1500"/>
                        </Array>
                    </mxGeometry>
                </mxCell>
                <mxCell id="789" value="&lt;span&gt;else if zodiac == leo&amp;nbsp;&lt;/span&gt;" style="strokeWidth=2;html=1;shape=mxgraph.flowchart.decision;whiteSpace=wrap;" vertex="1" parent="1">
                    <mxGeometry x="4135" y="1450" width="530" height="100" as="geometry"/>
                </mxCell>
                <mxCell id="790" style="edgeStyle=none;html=1;entryX=1;entryY=0.5;entryDx=0;entryDy=0;entryPerimeter=0;" edge="1" parent="1" source="791" target="849">
                    <mxGeometry relative="1" as="geometry">
                        <Array as="points">
                            <mxPoint x="4390" y="3290"/>
                        </Array>
                    </mxGeometry>
                </mxCell>
                <mxCell id="791" value="&lt;div&gt;&amp;nbsp; '&amp;lt;img src= ./images/leo.png alt=&quot;API image&quot; class=&quot;center&quot; width= 50% height 50%' +&lt;/div&gt;&lt;div&gt;&amp;nbsp; &amp;nbsp; &amp;nbsp; &quot;&amp;gt;&quot; +&lt;/div&gt;&lt;div&gt;&amp;nbsp; &amp;nbsp; &amp;nbsp; &quot;&amp;lt;p&amp;gt;&amp;lt;/p&amp;gt;&quot; +&lt;/div&gt;&lt;div&gt;&amp;nbsp; &amp;nbsp; &amp;nbsp; &quot;&amp;lt;h4&amp;gt;Leos are confident, comfortable being the center of attention and drama-adoring fire signs.&amp;lt;/h4&amp;gt;&quot;&lt;/div&gt;" style="shape=parallelogram;html=1;strokeWidth=2;perimeter=parallelogramPerimeter;whiteSpace=wrap;rounded=1;arcSize=12;size=0.23;" vertex="1" parent="1">
                    <mxGeometry x="3980" y="1669" width="840" height="130" as="geometry"/>
                </mxCell>
                <mxCell id="792" style="edgeStyle=none;html=1;" edge="1" parent="1" source="789" target="791">
                    <mxGeometry relative="1" as="geometry"/>
                </mxCell>
                <mxCell id="793" style="edgeStyle=none;html=1;entryX=0.5;entryY=0;entryDx=0;entryDy=0;entryPerimeter=0;" edge="1" parent="1" source="778" target="789">
                    <mxGeometry relative="1" as="geometry">
                        <Array as="points">
                            <mxPoint x="4400" y="1278"/>
                        </Array>
                    </mxGeometry>
                </mxCell>
                <mxCell id="794" style="edgeStyle=none;html=1;entryX=0.5;entryY=0;entryDx=0;entryDy=0;entryPerimeter=0;" edge="1" parent="1" source="795" target="800">
                    <mxGeometry relative="1" as="geometry">
                        <Array as="points">
                            <mxPoint x="5920" y="1720"/>
                        </Array>
                    </mxGeometry>
                </mxCell>
                <mxCell id="795" value="&lt;span&gt;else if zodiac == virgo&amp;nbsp;&lt;/span&gt;" style="strokeWidth=2;html=1;shape=mxgraph.flowchart.decision;whiteSpace=wrap;" vertex="1" parent="1">
                    <mxGeometry x="4935" y="1669" width="530" height="100" as="geometry"/>
                </mxCell>
                <mxCell id="796" style="edgeStyle=none;html=1;" edge="1" parent="1" source="797" target="849">
                    <mxGeometry relative="1" as="geometry">
                        <Array as="points">
                            <mxPoint x="5200" y="2160"/>
                            <mxPoint x="5200" y="3300"/>
                        </Array>
                    </mxGeometry>
                </mxCell>
                <mxCell id="797" value="&lt;div&gt;&amp;nbsp;&lt;span style=&quot;background-color: initial;&quot;&gt;'&amp;lt;img src= ./images/virgo.png alt=&quot;API image&quot; class=&quot;center&quot; width= 50% height 50%' +&lt;/span&gt;&lt;/div&gt;&lt;div&gt;&amp;nbsp; &amp;nbsp; &amp;nbsp; &quot;&amp;gt;&quot; +&lt;/div&gt;&lt;div&gt;&amp;nbsp; &amp;nbsp; &amp;nbsp; &quot;&amp;lt;p&amp;gt;&amp;lt;/p&amp;gt;&quot; +&lt;/div&gt;&lt;div&gt;&amp;nbsp; &amp;nbsp; &amp;nbsp; &quot;&amp;lt;h4&amp;gt;Virgos are humble, self-effacing, industrious, and practical earth signs.&amp;lt;/h4&amp;gt;&quot;&lt;/div&gt;" style="shape=parallelogram;html=1;strokeWidth=2;perimeter=parallelogramPerimeter;whiteSpace=wrap;rounded=1;arcSize=12;size=0.23;" vertex="1" parent="1">
                    <mxGeometry x="4835" y="1878" width="730" height="130" as="geometry"/>
                </mxCell>
                <mxCell id="798" style="edgeStyle=none;html=1;" edge="1" parent="1" source="795" target="797">
                    <mxGeometry relative="1" as="geometry"/>
                </mxCell>
                <mxCell id="799" style="edgeStyle=none;html=1;entryX=0.5;entryY=0;entryDx=0;entryDy=0;entryPerimeter=0;" edge="1" parent="1" source="800" target="805">
                    <mxGeometry relative="1" as="geometry">
                        <Array as="points">
                            <mxPoint x="6635" y="1930"/>
                        </Array>
                    </mxGeometry>
                </mxCell>
                <mxCell id="800" value="&lt;span&gt;else if zodiac == libra&amp;nbsp;&lt;/span&gt;" style="strokeWidth=2;html=1;shape=mxgraph.flowchart.decision;whiteSpace=wrap;" vertex="1" parent="1">
                    <mxGeometry x="5650" y="1878" width="530" height="100" as="geometry"/>
                </mxCell>
                <mxCell id="801" style="edgeStyle=none;html=1;entryX=0.979;entryY=0.606;entryDx=0;entryDy=0;entryPerimeter=0;" edge="1" parent="1" source="802" target="849">
                    <mxGeometry relative="1" as="geometry">
                        <Array as="points">
                            <mxPoint x="5915" y="3299"/>
                        </Array>
                    </mxGeometry>
                </mxCell>
                <mxCell id="802" value="&lt;div&gt;'&amp;lt;img src= ./images/libra.png alt=&quot;API image&quot; class=&quot;center&quot; width= 50% height 50%' +&lt;/div&gt;&lt;div&gt;&amp;nbsp; &amp;nbsp; &amp;nbsp; &quot;&amp;gt;&quot; +&lt;/div&gt;&lt;div&gt;&amp;nbsp; &amp;nbsp; &amp;nbsp; &quot;&amp;lt;p&amp;gt;&amp;lt;/p&amp;gt;&quot; +&lt;/div&gt;&lt;div&gt;&amp;nbsp; &amp;nbsp; &amp;nbsp; &quot;&amp;lt;h4&amp;gt;Libras are charming, beautiful, and well-balanced air signs.&amp;lt;/h4&amp;gt;&quot;&lt;/div&gt;" style="shape=parallelogram;html=1;strokeWidth=2;perimeter=parallelogramPerimeter;whiteSpace=wrap;rounded=1;arcSize=12;size=0.23;" vertex="1" parent="1">
                    <mxGeometry x="5550" y="2087" width="730" height="130" as="geometry"/>
                </mxCell>
                <mxCell id="803" style="edgeStyle=none;html=1;" edge="1" parent="1" source="800" target="802">
                    <mxGeometry relative="1" as="geometry"/>
                </mxCell>
                <mxCell id="804" style="edgeStyle=none;html=1;entryX=0.5;entryY=0;entryDx=0;entryDy=0;entryPerimeter=0;" edge="1" parent="1" source="805" target="810">
                    <mxGeometry relative="1" as="geometry">
                        <Array as="points">
                            <mxPoint x="7305" y="2137"/>
                        </Array>
                    </mxGeometry>
                </mxCell>
                <mxCell id="805" value="&lt;span&gt;else if zodiac == scorpio&amp;nbsp;&lt;/span&gt;" style="strokeWidth=2;html=1;shape=mxgraph.flowchart.decision;whiteSpace=wrap;" vertex="1" parent="1">
                    <mxGeometry x="6370" y="2087" width="530" height="100" as="geometry"/>
                </mxCell>
                <mxCell id="806" style="edgeStyle=none;html=1;entryX=1;entryY=0.5;entryDx=0;entryDy=0;entryPerimeter=0;" edge="1" parent="1" source="807" target="849">
                    <mxGeometry relative="1" as="geometry">
                        <Array as="points">
                            <mxPoint x="6635" y="3300"/>
                        </Array>
                    </mxGeometry>
                </mxCell>
                <mxCell id="807" value="&lt;div&gt;&amp;nbsp;'&amp;lt;img src= ./images/scorpio.png alt=&quot;scorpio image&quot; class=&quot;center&quot; width= 50% height 50%' +&lt;/div&gt;&lt;div&gt;&amp;nbsp; &amp;nbsp; &amp;nbsp; &quot;&amp;gt;&quot; +&lt;/div&gt;&lt;div&gt;&amp;nbsp; &amp;nbsp; &amp;nbsp; &quot;&amp;lt;p&amp;gt;&amp;lt;/p&amp;gt;&quot; +&lt;/div&gt;&lt;div&gt;&amp;nbsp; &amp;nbsp; &amp;nbsp; &quot;&amp;lt;h4&amp;gt;Scorpios are determined, brave, and loyal water signs.&amp;lt;/h4&amp;gt;&quot;&lt;/div&gt;" style="shape=parallelogram;html=1;strokeWidth=2;perimeter=parallelogramPerimeter;whiteSpace=wrap;rounded=1;arcSize=12;size=0.23;" vertex="1" parent="1">
                    <mxGeometry x="6270" y="2296" width="730" height="130" as="geometry"/>
                </mxCell>
                <mxCell id="808" style="edgeStyle=none;html=1;" edge="1" parent="1" source="805" target="807">
                    <mxGeometry relative="1" as="geometry"/>
                </mxCell>
                <mxCell id="809" style="edgeStyle=none;html=1;entryX=0.485;entryY=-0.028;entryDx=0;entryDy=0;entryPerimeter=0;" edge="1" parent="1" source="810" target="815">
                    <mxGeometry relative="1" as="geometry">
                        <Array as="points">
                            <mxPoint x="8027" y="2346"/>
                        </Array>
                    </mxGeometry>
                </mxCell>
                <mxCell id="810" value="&lt;span&gt;else if zodiac == sagittarius&amp;nbsp;&lt;/span&gt;" style="strokeWidth=2;html=1;shape=mxgraph.flowchart.decision;whiteSpace=wrap;" vertex="1" parent="1">
                    <mxGeometry x="7040" y="2296" width="530" height="100" as="geometry"/>
                </mxCell>
                <mxCell id="811" style="edgeStyle=none;html=1;" edge="1" parent="1" source="812" target="849">
                    <mxGeometry relative="1" as="geometry">
                        <Array as="points">
                            <mxPoint x="7300" y="3300"/>
                        </Array>
                    </mxGeometry>
                </mxCell>
                <mxCell id="812" value="&lt;div&gt;'&amp;lt;img src= ./images/sagittarius.png alt=&quot;sagittarius image&quot; class=&quot;center&quot; width= 50% height 50%' +&lt;/div&gt;&lt;div&gt;&amp;nbsp; &amp;nbsp; &amp;nbsp; &quot;&amp;gt;&quot; +&lt;/div&gt;&lt;div&gt;&amp;nbsp; &amp;nbsp; &amp;nbsp; &quot;&amp;lt;p&amp;gt;&amp;lt;/p&amp;gt;&quot; +&lt;/div&gt;&lt;div&gt;&amp;nbsp; &amp;nbsp; &amp;nbsp; &quot;&amp;lt;h4&amp;gt;Sagittarius are optimistic, lovers of freedom and hilarious fire signs.&amp;lt;/h4&amp;gt;&quot;&lt;/div&gt;" style="shape=parallelogram;html=1;strokeWidth=2;perimeter=parallelogramPerimeter;whiteSpace=wrap;rounded=1;arcSize=12;size=0.23;" vertex="1" parent="1">
                    <mxGeometry x="6940" y="2505" width="730" height="130" as="geometry"/>
                </mxCell>
                <mxCell id="813" style="edgeStyle=none;html=1;" edge="1" parent="1" source="810" target="812">
                    <mxGeometry relative="1" as="geometry"/>
                </mxCell>
                <mxCell id="814" style="edgeStyle=none;html=1;entryX=0.5;entryY=0;entryDx=0;entryDy=0;entryPerimeter=0;" edge="1" parent="1" source="815" target="820">
                    <mxGeometry relative="1" as="geometry">
                        <Array as="points">
                            <mxPoint x="8695" y="2550"/>
                        </Array>
                    </mxGeometry>
                </mxCell>
                <mxCell id="815" value="&lt;span&gt;else if zodiac == capricorn&amp;nbsp;&lt;/span&gt;" style="strokeWidth=2;html=1;shape=mxgraph.flowchart.decision;whiteSpace=wrap;" vertex="1" parent="1">
                    <mxGeometry x="7770" y="2500" width="530" height="100" as="geometry"/>
                </mxCell>
                <mxCell id="816" style="edgeStyle=none;html=1;" edge="1" parent="1" source="817">
                    <mxGeometry relative="1" as="geometry">
                        <mxPoint x="2270" y="3300" as="targetPoint"/>
                        <Array as="points">
                            <mxPoint x="8040" y="3300"/>
                        </Array>
                    </mxGeometry>
                </mxCell>
                <mxCell id="817" value="&lt;div&gt;'&amp;lt;img src= ./images/capricorn.png alt=&quot;capricorn image&quot; class=&quot;center&quot; width= 50% height 50%' +&lt;/div&gt;&lt;div&gt;&amp;nbsp; &amp;nbsp; &amp;nbsp; &quot;&amp;gt;&quot; +&lt;/div&gt;&lt;div&gt;&amp;nbsp; &amp;nbsp; &amp;nbsp; &quot;&amp;lt;p&amp;gt;&amp;lt;/p&amp;gt;&quot; +&lt;/div&gt;&lt;div&gt;&amp;nbsp; &amp;nbsp; &amp;nbsp; &quot;&amp;lt;h4&amp;gt;Capricorns are overachievers, persistent and practical earth signs.&amp;lt;/h4&amp;gt;&quot;&lt;/div&gt;" style="shape=parallelogram;html=1;strokeWidth=2;perimeter=parallelogramPerimeter;whiteSpace=wrap;rounded=1;arcSize=12;size=0.23;" vertex="1" parent="1">
                    <mxGeometry x="7670" y="2700" width="730" height="130" as="geometry"/>
                </mxCell>
                <mxCell id="818" style="edgeStyle=none;html=1;" edge="1" parent="1" source="815" target="817">
                    <mxGeometry relative="1" as="geometry"/>
                </mxCell>
                <mxCell id="819" style="edgeStyle=none;html=1;entryX=0.5;entryY=0;entryDx=0;entryDy=0;entryPerimeter=0;" edge="1" parent="1" source="820" target="825">
                    <mxGeometry relative="1" as="geometry">
                        <Array as="points">
                            <mxPoint x="9345" y="2759"/>
                        </Array>
                    </mxGeometry>
                </mxCell>
                <mxCell id="820" value="&lt;span&gt;else if zodiac == aquarius&amp;nbsp;&lt;/span&gt;" style="strokeWidth=2;html=1;shape=mxgraph.flowchart.decision;whiteSpace=wrap;" vertex="1" parent="1">
                    <mxGeometry x="8430" y="2709" width="530" height="100" as="geometry"/>
                </mxCell>
                <mxCell id="821" style="edgeStyle=none;html=1;entryX=0.9;entryY=0.614;entryDx=0;entryDy=0;entryPerimeter=0;" edge="1" parent="1" source="822" target="849">
                    <mxGeometry relative="1" as="geometry">
                        <Array as="points">
                            <mxPoint x="8700" y="3300"/>
                        </Array>
                    </mxGeometry>
                </mxCell>
                <mxCell id="822" value="&lt;div&gt;'&amp;lt;img src= ./images/aquarius.png alt=&quot;API image&quot; class=&quot;center&quot; width= 50% height 50%' +&lt;/div&gt;&lt;div&gt;&amp;nbsp; &amp;nbsp; &amp;nbsp; &quot;&amp;gt;&quot; +&lt;/div&gt;&lt;div&gt;&amp;nbsp; &amp;nbsp; &amp;nbsp; &quot;&amp;lt;p&amp;gt;&amp;lt;/p&amp;gt;&quot; +&lt;/div&gt;&lt;div&gt;&amp;nbsp; &amp;nbsp; &amp;nbsp; &quot;&amp;lt;h4&amp;gt;Aquarius are progressive, independent, intelligent, unique, and idealistic air signs.&amp;lt;/h4&amp;gt;&quot;&lt;/div&gt;" style="shape=parallelogram;html=1;strokeWidth=2;perimeter=parallelogramPerimeter;whiteSpace=wrap;rounded=1;arcSize=12;size=0.23;" vertex="1" parent="1">
                    <mxGeometry x="8330" y="2918" width="730" height="130" as="geometry"/>
                </mxCell>
                <mxCell id="823" style="edgeStyle=none;html=1;" edge="1" parent="1" source="820" target="822">
                    <mxGeometry relative="1" as="geometry"/>
                </mxCell>
                <mxCell id="824" style="edgeStyle=none;html=1;entryX=0.521;entryY=-0.005;entryDx=0;entryDy=0;entryPerimeter=0;" edge="1" parent="1" source="825" target="830">
                    <mxGeometry relative="1" as="geometry">
                        <mxPoint x="10010" y="2968" as="targetPoint"/>
                        <Array as="points">
                            <mxPoint x="10080" y="2968"/>
                        </Array>
                    </mxGeometry>
                </mxCell>
                <mxCell id="825" value="&lt;span&gt;else if zodiac == pisces&amp;nbsp;&lt;/span&gt;" style="strokeWidth=2;html=1;shape=mxgraph.flowchart.decision;whiteSpace=wrap;" vertex="1" parent="1">
                    <mxGeometry x="9080" y="2918" width="530" height="100" as="geometry"/>
                </mxCell>
                <mxCell id="826" style="edgeStyle=none;html=1;entryX=1;entryY=0.5;entryDx=0;entryDy=0;entryPerimeter=0;" edge="1" parent="1" source="827" target="849">
                    <mxGeometry relative="1" as="geometry">
                        <Array as="points">
                            <mxPoint x="9345" y="3300"/>
                        </Array>
                    </mxGeometry>
                </mxCell>
                <mxCell id="827" value="&lt;div&gt;'&lt;span style=&quot;background-color: initial;&quot;&gt;&amp;nbsp;'&amp;lt;img src= ./images/pisces.png alt=&quot;API image&quot; class=&quot;center&quot; width= 50% height 50%' +&lt;/span&gt;&lt;/div&gt;&lt;div&gt;&amp;nbsp; &amp;nbsp; &amp;nbsp; &quot;&amp;gt;&quot; +&lt;/div&gt;&lt;div&gt;&amp;nbsp; &amp;nbsp; &amp;nbsp; &quot;&amp;lt;p&amp;gt;&amp;lt;/p&amp;gt;&quot; +&lt;/div&gt;&lt;div&gt;&amp;nbsp; &amp;nbsp; &amp;nbsp; &quot;&amp;lt;h4&amp;gt;Pisces are compassionate, artistic and deeply emotional water signs.&amp;lt;/h4&amp;gt;&quot;&lt;/div&gt;" style="shape=parallelogram;html=1;strokeWidth=2;perimeter=parallelogramPerimeter;whiteSpace=wrap;rounded=1;arcSize=12;size=0.23;" vertex="1" parent="1">
                    <mxGeometry x="8980" y="3127" width="730" height="130" as="geometry"/>
                </mxCell>
                <mxCell id="828" style="edgeStyle=none;html=1;" edge="1" parent="1" source="825" target="827">
                    <mxGeometry relative="1" as="geometry"/>
                </mxCell>
                <mxCell id="829" style="edgeStyle=none;html=1;exitX=0.5;exitY=1;exitDx=0;exitDy=0;" edge="1" parent="1" source="830" target="849">
                    <mxGeometry relative="1" as="geometry">
                        <Array as="points">
                            <mxPoint x="7730" y="3310"/>
                        </Array>
                    </mxGeometry>
                </mxCell>
                <mxCell id="830" value="&lt;div&gt;&lt;span style=&quot;background-color: initial;&quot;&gt;&amp;nbsp;&quot;&amp;lt;p&amp;gt;&amp;lt;/p&amp;gt;&quot; +&lt;/span&gt;&lt;br&gt;&lt;/div&gt;&lt;div&gt;&lt;div&gt;&amp;nbsp; &amp;nbsp; &amp;nbsp; &quot;&amp;lt;p&amp;gt;You did not select anything.&amp;lt;/p&amp;gt;&quot;&lt;/div&gt;&lt;/div&gt;" style="shape=parallelogram;html=1;strokeWidth=2;perimeter=parallelogramPerimeter;whiteSpace=wrap;rounded=1;arcSize=12;size=0.23;" vertex="1" parent="1">
                    <mxGeometry x="9700" y="3170" width="730" height="130" as="geometry"/>
                </mxCell>
                <mxCell id="831" value="False" style="text;strokeColor=none;fillColor=none;html=1;fontSize=24;fontStyle=1;verticalAlign=middle;align=center;" vertex="1" parent="1">
                    <mxGeometry x="4082" y="1220" width="100" height="40" as="geometry"/>
                </mxCell>
                <mxCell id="832" value="False" style="text;strokeColor=none;fillColor=none;html=1;fontSize=24;fontStyle=1;verticalAlign=middle;align=center;" vertex="1" parent="1">
                    <mxGeometry x="4860" y="1460" width="100" height="40" as="geometry"/>
                </mxCell>
                <mxCell id="833" style="edgeStyle=none;html=1;exitX=0.75;exitY=1;exitDx=0;exitDy=0;entryX=0.848;entryY=1.041;entryDx=0;entryDy=0;entryPerimeter=0;" edge="1" parent="1" source="832" target="832">
                    <mxGeometry relative="1" as="geometry"/>
                </mxCell>
                <mxCell id="834" value="False" style="text;strokeColor=none;fillColor=none;html=1;fontSize=24;fontStyle=1;verticalAlign=middle;align=center;" vertex="1" parent="1">
                    <mxGeometry x="5600" y="1680" width="100" height="40" as="geometry"/>
                </mxCell>
                <mxCell id="835" value="False" style="text;strokeColor=none;fillColor=none;html=1;fontSize=24;fontStyle=1;verticalAlign=middle;align=center;" vertex="1" parent="1">
                    <mxGeometry x="6330" y="1878" width="100" height="40" as="geometry"/>
                </mxCell>
                <mxCell id="836" value="False" style="text;strokeColor=none;fillColor=none;html=1;fontSize=24;fontStyle=1;verticalAlign=middle;align=center;" vertex="1" parent="1">
                    <mxGeometry x="7030" y="2087" width="100" height="40" as="geometry"/>
                </mxCell>
                <mxCell id="837" value="False" style="text;strokeColor=none;fillColor=none;html=1;fontSize=24;fontStyle=1;verticalAlign=middle;align=center;" vertex="1" parent="1">
                    <mxGeometry x="7710" y="2296" width="100" height="40" as="geometry"/>
                </mxCell>
                <mxCell id="838" value="False" style="text;strokeColor=none;fillColor=none;html=1;fontSize=24;fontStyle=1;verticalAlign=middle;align=center;" vertex="1" parent="1">
                    <mxGeometry x="8420" y="2500" width="100" height="40" as="geometry"/>
                </mxCell>
                <mxCell id="839" value="False" style="text;strokeColor=none;fillColor=none;html=1;fontSize=24;fontStyle=1;verticalAlign=middle;align=center;" vertex="1" parent="1">
                    <mxGeometry x="9100" y="2709" width="110" height="40" as="geometry"/>
                </mxCell>
                <mxCell id="840" value="False" style="text;strokeColor=none;fillColor=none;html=1;fontSize=24;fontStyle=1;verticalAlign=middle;align=center;" vertex="1" parent="1">
                    <mxGeometry x="9780" y="2918" width="110" height="41" as="geometry"/>
                </mxCell>
                <mxCell id="841" value="True" style="text;strokeColor=none;fillColor=none;html=1;fontSize=24;fontStyle=1;verticalAlign=middle;align=center;" vertex="1" parent="1">
                    <mxGeometry x="9370" y="3040" width="110" height="40" as="geometry"/>
                </mxCell>
                <mxCell id="842" value="True" style="text;strokeColor=none;fillColor=none;html=1;fontSize=24;fontStyle=1;verticalAlign=middle;align=center;" vertex="1" parent="1">
                    <mxGeometry x="8710" y="2839" width="110" height="40" as="geometry"/>
                </mxCell>
                <mxCell id="843" value="True" style="text;strokeColor=none;fillColor=none;html=1;fontSize=24;fontStyle=1;verticalAlign=middle;align=center;" vertex="1" parent="1">
                    <mxGeometry x="8060" y="2620" width="110" height="40" as="geometry"/>
                </mxCell>
                <mxCell id="844" value="True" style="text;strokeColor=none;fillColor=none;html=1;fontSize=24;fontStyle=1;verticalAlign=middle;align=center;" vertex="1" parent="1">
                    <mxGeometry x="7340" y="2420" width="110" height="40" as="geometry"/>
                </mxCell>
                <mxCell id="845" value="True" style="text;strokeColor=none;fillColor=none;html=1;fontSize=24;fontStyle=1;verticalAlign=middle;align=center;" vertex="1" parent="1">
                    <mxGeometry x="6650" y="2217" width="110" height="40" as="geometry"/>
                </mxCell>
                <mxCell id="846" value="True" style="text;strokeColor=none;fillColor=none;html=1;fontSize=24;fontStyle=1;verticalAlign=middle;align=center;" vertex="1" parent="1">
                    <mxGeometry x="5930" y="2008" width="110" height="40" as="geometry"/>
                </mxCell>
                <mxCell id="847" value="True" style="text;strokeColor=none;fillColor=none;html=1;fontSize=24;fontStyle=1;verticalAlign=middle;align=center;" vertex="1" parent="1">
                    <mxGeometry x="5200" y="1799" width="110" height="40" as="geometry"/>
                </mxCell>
                <mxCell id="848" value="True" style="text;strokeColor=none;fillColor=none;html=1;fontSize=24;fontStyle=1;verticalAlign=middle;align=center;" vertex="1" parent="1">
                    <mxGeometry x="4430" y="1590" width="110" height="40" as="geometry"/>
                </mxCell>
                <mxCell id="849" value="Stop" style="strokeWidth=2;html=1;shape=mxgraph.flowchart.terminator;whiteSpace=wrap;" vertex="1" parent="1">
                    <mxGeometry x="2250" y="3257" width="100" height="70" as="geometry"/>
                </mxCell>
                <mxCell id="850" style="edgeStyle=none;html=1;entryX=0;entryY=0.5;entryDx=0;entryDy=0;entryPerimeter=0;" edge="1" parent="1" source="769" target="849">
                    <mxGeometry relative="1" as="geometry">
                        <Array as="points">
                            <mxPoint x="1430" y="3290"/>
                        </Array>
                    </mxGeometry>
                </mxCell>
                <mxCell id="851" style="edgeStyle=none;html=1;entryX=1;entryY=0.5;entryDx=0;entryDy=0;entryPerimeter=0;" edge="1" parent="1" source="776" target="849">
                    <mxGeometry relative="1" as="geometry">
                        <Array as="points">
                            <mxPoint x="2910" y="3290"/>
                        </Array>
                    </mxGeometry>
                </mxCell>
                <mxCell id="852" style="edgeStyle=none;html=1;entryX=1;entryY=0.5;entryDx=0;entryDy=0;entryPerimeter=0;" edge="1" parent="1" source="779" target="849">
                    <mxGeometry relative="1" as="geometry">
                        <Array as="points">
                            <mxPoint x="3680" y="3292"/>
                        </Array>
                    </mxGeometry>
                </mxCell>
                <mxCell id="853" value="zodiac == &quot;Aries&quot; &amp;amp;&amp;amp; topic == &quot;Work&quot;" style="strokeWidth=2;html=1;shape=mxgraph.flowchart.decision;whiteSpace=wrap;" vertex="1" parent="1">
                    <mxGeometry x="320" y="485" width="530" height="100" as="geometry"/>
                </mxCell>
            </root>
        </mxGraphModel>
    </diagram>
</mxfile>